<?xml version="1.0" standalone="no"?>
<!DOCTYPE svg PUBLIC "-//W3C//DTD SVG 20010904//EN"
 "http://www.w3.org/TR/2001/REC-SVG-20010904/DTD/svg10.dtd">
<svg version="1.0" xmlns="http://www.w3.org/2000/svg"
 width="512.000000pt" height="512.000000pt" viewBox="0 0 512.000000 512.000000"
 preserveAspectRatio="xMidYMid meet">
<metadata>
Created by potrace 1.11, written by Peter Selinger 2001-2013
</metadata>
<g transform="translate(0.000000,512.000000) scale(0.100000,-0.100000)"
fill="#000000" stroke="none">
<path d="M10 2555 l0 -2555 2555 0 2555 0 0 2555 0 2555 -2555 0 -2555 0 0
-2555z m4231 1382 c55 -37 88 -94 106 -183 23 -119 5 -197 -85 -376 l-69 -136
146 -7 c80 -4 152 -12 159 -17 21 -17 15 -89 -10 -115 -21 -23 -26 -23 -218
-23 l-196 0 -55 -75 -56 -75 -6 -172 c-9 -221 5 -279 74 -316 73 -39 255 40
427 185 l52 45 0 -125 0 -125 -107 -60 c-60 -34 -148 -80 -198 -104 -190 -91
-313 -56 -396 114 l-22 47 -45 -31 c-63 -44 -214 -112 -312 -141 -124 -38
-209 -50 -318 -45 -80 3 -106 9 -149 31 -51 26 -84 62 -97 104 -7 21 -9 20
-77 -22 -107 -66 -192 -97 -280 -103 -96 -6 -141 8 -177 56 -24 31 -27 45 -30
127 -4 108 10 191 79 470 57 226 67 245 153 270 63 19 96 19 124 -1 32 -22 29
-56 -28 -259 -76 -271 -94 -387 -70 -449 7 -20 16 -26 40 -26 55 0 130 48 130
82 0 11 25 43 57 71 162 148 206 195 322 346 144 189 179 226 228 242 74 24
165 -11 171 -66 6 -46 -6 -73 -63 -140 -64 -75 -65 -83 -30 -210 14 -49 28
-127 32 -172 3 -46 9 -83 12 -82 3 0 66 30 140 68 l133 67 2 253 c1 161 -3
255 -9 257 -5 2 -57 10 -115 18 -113 17 -130 27 -130 77 0 46 22 54 162 59
l130 5 28 110 c58 223 137 397 224 492 78 86 150 106 217 60z m-2263 -60 c141
-51 223 -184 225 -366 2 -171 -99 -305 -192 -256 -58 29 -76 101 -46 185 33
95 7 210 -57 250 -28 18 -44 21 -104 17 -218 -15 -461 -212 -597 -482 -42 -85
-90 -233 -108 -335 -20 -112 -18 -312 3 -381 41 -130 127 -207 260 -229 141
-24 367 20 519 102 80 42 90 56 96 130 7 80 -9 97 -93 105 -99 10 -149 47
-149 113 0 77 76 117 206 107 226 -18 285 -118 260 -440 -40 -499 -207 -804
-484 -889 -57 -17 -86 -20 -170 -15 -148 7 -254 51 -278 114 -14 37 7 101 47
141 32 32 38 34 77 29 23 -3 71 -18 107 -33 89 -36 156 -41 197 -15 74 47 165
218 221 419 l21 74 -32 -26 c-154 -123 -308 -176 -516 -176 -113 0 -190 18
-274 62 -126 67 -230 196 -282 348 -25 74 -29 103 -33 230 -3 106 0 171 12
240 85 492 442 893 876 985 81 18 230 13 288 -8z m801 -315 c69 -32 88 -138
38 -214 -45 -68 -168 -99 -252 -64 -60 25 -92 100 -74 171 28 109 169 161 288
107z"/>
<path d="M4127 3729 c-36 -21 -91 -163 -136 -352 -27 -115 -27 -119 7 -115 23
3 35 17 80 98 105 191 143 333 97 366 -22 16 -25 17 -48 3z"/>
<path d="M3077 2582 c-64 -65 -117 -121 -117 -124 0 -4 23 -26 51 -48 43 -34
58 -40 98 -40 81 0 121 50 121 152 0 48 -21 163 -32 173 -2 2 -57 -48 -121
-113z"/>
</g>
</svg>
